<?xml version="1.0" standalone="no"?>
<!DOCTYPE svg PUBLIC "-//W3C//DTD SVG 20010904//EN"
 "http://www.w3.org/TR/2001/REC-SVG-20010904/DTD/svg10.dtd">
<svg version="1.0" xmlns="http://www.w3.org/2000/svg"
 width="500.000000pt" height="500.000000pt" viewBox="0 0 500.000000 500.000000"
 preserveAspectRatio="xMidYMid meet">

<g transform="translate(0.000000,500.000000) scale(0.100000,-0.100000)"
fill="#000000" stroke="none">
<path d="M0 2500 l0 -2500 2500 0 2500 0 0 2500 0 2500 -2500 0 -2500 0 0
-2500z m3930 1247 l264 -268 -929 -929 -930 -930 -262 262 -263 263 0 -613 0
-612 -380 0 -380 0 0 1520 0 1520 380 0 380 0 0 -885 c0 -487 3 -885 8 -885 4
0 419 412 922 915 503 503 917 914 920 913 3 -2 124 -124 270 -271z m-7 -2000
l351 -358 -265 -265 -264 -264 -497 497 -498 498 267 267 268 268 143 -143
c79 -78 301 -303 495 -500z"/>
<path d="M1210 2440 l0 -1360 225 0 225 0 0 1360 0 1360 -225 0 -225 0 0
-1360z"/>
<path d="M2837 2982 l-818 -818 152 -157 c83 -86 156 -157 162 -157 7 0 379
367 827 815 l815 815 -160 160 -160 160 -818 -818z"/>
<path d="M3126 2008 l-157 -153 388 -388 388 -387 155 155 155 155 -386 386
-386 386 -157 -154z"/>
</g>
</svg>
